M48
; DRILL file {KiCad 9.0.0} date 2025-03-26T23:15:01+0000
; FORMAT={-:-/ absolute / metric / decimal}
; #@! TF.CreationDate,2025-03-26T23:15:01+00:00
; #@! TF.GenerationSoftware,Kicad,Pcbnew,9.0.0
; #@! TF.FileFunction,Plated,1,4,PTH
FMAT,2
METRIC
; #@! TA.AperFunction,Plated,PTH,ViaDrill
T1C0.400
; #@! TA.AperFunction,Plated,PTH,ComponentDrill
T2C0.400
; #@! TA.AperFunction,Plated,PTH,ComponentDrill
T3C0.500
; #@! TA.AperFunction,Plated,PTH,ComponentDrill
T4C0.800
; #@! TA.AperFunction,Plated,PTH,ComponentDrill
T5C1.000
; #@! TA.AperFunction,Plated,PTH,ComponentDrill
T6C1.100
; #@! TA.AperFunction,Plated,PTH,ComponentDrill
T7C1.800
%
G90
G05
T1
X115.57Y-67.564
X115.824Y-80.518
X118.872Y-61.214
X119.094Y-86.106
X119.38Y-67.564
X119.634Y-80.772
X123.444Y-80.137
X123.571Y-67.056
X124.968Y-65.786
X124.968Y-71.882
X124.968Y-76.454
X124.968Y-81.534
X124.968Y-84.074
X127.635Y-62.484
X129.032Y-68.199
X129.032Y-71.882
X129.032Y-76.454
X129.032Y-83.312
X132.588Y-83.439
X132.842Y-77.978
X133.858Y-67.31
X133.986Y-71.5
X135.89Y-68.199
X135.89Y-86.741
X135.966Y-60.325
X136.144Y-78.994
X136.144Y-83.388
X137.414Y-50.546
X137.668Y-64.802
X137.752Y-95.293
X139.954Y-85.344
X140.97Y-60.325
X140.97Y-79.248
X141.224Y-81.534
X143.002Y-77.502
X143.256Y-81.026
X143.256Y-85.166
X144.526Y-65.024
X145.034Y-74.93
X145.045Y-88.9
X145.669Y-80.264
X145.923Y-65.151
X146.304Y-75.438
X147.227Y-65.566
X147.32Y-85.852
X147.828Y-79.629
X148.775Y-66.466
X149.544Y-80.126
X152.781Y-65.151
X156.21Y-75.438
X158.496Y-62.992
X159.766Y-49.784
X160.274Y-98.298
X160.782Y-83.058
X161.036Y-74.168
X161.152Y-85.217
X161.29Y-93.98
X161.544Y-54.864
X161.671Y-90.297
X162.814Y-75.184
X163.068Y-62.738
X163.193Y-69.848
X164.338Y-69.596
X164.338Y-83.566
X168.402Y-68.58
X168.656Y-64.516
X168.91Y-83.82
X169.164Y-74.676
X169.23Y-78.952
X169.418Y-67.564
X170.434Y-79.021
X170.688Y-64.008
X171.223Y-78.232
X171.425Y-79.369
X171.45Y-83.693
X173.228Y-65.532
X175.006Y-83.82
X175.768Y-78.994
X176.022Y-64.008
X177.673Y-78.613
X178.054Y-83.566
X178.054Y-94.996
X179.324Y-63.754
X179.324Y-85.598
X179.451Y-51.181
X179.578Y-61.468
X181.737Y-66.294
X182.753Y-71.12
X185.356Y-53.657
X185.547Y-88.773
X187.579Y-94.361
X192.024Y-87.63
X192.024Y-92.202
T2
X145.618Y-93.98
X148.488Y-88.9
X182.626Y-77.445
X185.496Y-72.365
T3
X135.694Y-58.749
X135.694Y-93.446
X135.719Y-53.796
X135.719Y-88.493
X177.858Y-58.775
X177.858Y-93.472
X177.883Y-53.822
X177.883Y-88.519
T4
X147.066Y-88.9
X147.066Y-91.44
X147.066Y-93.98
X184.074Y-72.365
X184.074Y-74.905
X184.074Y-77.445
T5
X137.294Y-53.709
X137.294Y-56.209
X137.294Y-58.709
X137.294Y-88.406
X137.294Y-90.906
X137.294Y-93.406
X179.458Y-53.735
X179.458Y-56.235
X179.458Y-58.735
X179.458Y-88.432
X179.458Y-90.932
X179.458Y-93.432
T6
X118.11Y-70.104
X118.11Y-72.644
X118.11Y-75.184
X118.11Y-77.724
X192.024Y-62.484
X192.024Y-65.024
X192.024Y-67.564
X192.024Y-70.104
X192.024Y-72.644
X192.024Y-75.184
X192.024Y-77.724
X192.024Y-80.264
X192.024Y-82.804
X192.024Y-85.344
T7
X129.794Y-51.409
X129.794Y-61.009
X129.794Y-86.106
X129.794Y-95.706
X171.958Y-51.435
X171.958Y-61.035
X171.958Y-86.132
X171.958Y-95.732
M30
