%TF.GenerationSoftware,KiCad,Pcbnew,9.0.0*%
%TF.CreationDate,2025-03-26T23:14:20+00:00*%
%TF.ProjectId,diode-ladder-filter-synth-module,64696f64-652d-46c6-9164-6465722d6669,rev?*%
%TF.SameCoordinates,Original*%
%TF.FileFunction,Copper,L2,Inr*%
%TF.FilePolarity,Positive*%
%FSLAX46Y46*%
G04 Gerber Fmt 4.6, Leading zero omitted, Abs format (unit mm)*
G04 Created by KiCad (PCBNEW 9.0.0) date 2025-03-26 23:14:20*
%MOMM*%
%LPD*%
G01*
G04 APERTURE LIST*
%TA.AperFunction,ComponentPad*%
%ADD10C,2.200000*%
%TD*%
%TA.AperFunction,ComponentPad*%
%ADD11R,2.200000X2.200000*%
%TD*%
%TA.AperFunction,ComponentPad*%
%ADD12R,0.899998X0.899994*%
%TD*%
%TA.AperFunction,ComponentPad*%
%ADD13C,1.800000*%
%TD*%
%TA.AperFunction,ComponentPad*%
%ADD14R,0.900000X0.899998*%
%TD*%
%TA.AperFunction,ComponentPad*%
%ADD15C,3.240000*%
%TD*%
%TA.AperFunction,ComponentPad*%
%ADD16R,1.800000X1.800000*%
%TD*%
%TA.AperFunction,ComponentPad*%
%ADD17R,1.000000X1.000000*%
%TD*%
%TA.AperFunction,ComponentPad*%
%ADD18C,1.440000*%
%TD*%
%TA.AperFunction,ComponentPad*%
%ADD19R,1.440000X1.440000*%
%TD*%
%TA.AperFunction,ViaPad*%
%ADD20C,0.800000*%
%TD*%
%TA.AperFunction,Conductor*%
%ADD21C,0.500000*%
%TD*%
G04 APERTURE END LIST*
D10*
%TO.N,/CV1_IN*%
%TO.C,J6*%
X192024000Y-62484000D03*
%TO.N,GND*%
X192024000Y-65024000D03*
%TO.N,/CV2_IN*%
X192024000Y-67564000D03*
%TO.N,GND*%
X192024000Y-70104000D03*
%TO.N,/AUDIO_OUT*%
X192024000Y-72644000D03*
%TO.N,GND*%
X192024000Y-75184000D03*
%TO.N,/AUDIO_IN*%
X192024000Y-77724000D03*
%TO.N,GND*%
X192024000Y-80264000D03*
%TO.N,/AUDIO_IN*%
X192024000Y-82804000D03*
D11*
%TO.N,GND*%
X192024000Y-85344000D03*
%TD*%
D12*
%TO.N,GND*%
%TO.C,PT1*%
X135719200Y-88493000D03*
D13*
%TO.N,Net-(PT1-Pad2)*%
X137294000Y-90906000D03*
D14*
%TO.N,/CV1_IN*%
X135693800Y-93446000D03*
D15*
%TO.N,*%
X129794000Y-86106000D03*
D16*
X137294000Y-88406000D03*
X137294000Y-93406000D03*
D15*
X129794000Y-95706000D03*
%TD*%
D12*
%TO.N,GND*%
%TO.C,PT3*%
X135719200Y-53796000D03*
D13*
%TO.N,Net-(C9-Pad1)*%
X137294000Y-56209000D03*
D14*
%TO.N,/AUDIO_IN*%
X135693800Y-58749000D03*
D15*
%TO.N,*%
X129794000Y-51409000D03*
D16*
X137294000Y-53709000D03*
X137294000Y-58709000D03*
D15*
X129794000Y-61009000D03*
%TD*%
D10*
%TO.N,Net-(J1-+12v)*%
%TO.C,J1*%
X118110000Y-77724000D03*
%TO.N,GND*%
X118110000Y-75184000D03*
X118110000Y-72644000D03*
D11*
%TO.N,Net-(J1--12v)*%
X118110000Y-70104000D03*
%TD*%
D17*
%TO.N,Net-(PT7-Pad3)*%
%TO.C,PT7*%
X182626000Y-77444600D03*
D18*
%TO.N,Net-(PT4-Pad3)*%
X184073800Y-74904600D03*
D17*
X185496200Y-72364600D03*
D19*
%TO.N,*%
X184073800Y-72364600D03*
X184073800Y-77444600D03*
%TD*%
D12*
%TO.N,Net-(PT4-Pad3)*%
%TO.C,PT4*%
X177883200Y-53822000D03*
D13*
%TO.N,Net-(U2D-+)*%
X179458000Y-56235000D03*
D14*
%TO.N,Net-(U2A--)*%
X177857800Y-58775000D03*
D15*
%TO.N,*%
X171958000Y-51435000D03*
D16*
X179458000Y-53735000D03*
X179458000Y-58735000D03*
D15*
X171958000Y-61035000D03*
%TD*%
D12*
%TO.N,Net-(PT2-Pad3)*%
%TO.C,PT2*%
X177883200Y-88519000D03*
D13*
%TO.N,Net-(PT2-Pad2)*%
X179458000Y-90932000D03*
D14*
%TO.N,+12V*%
X177857800Y-93472000D03*
D15*
%TO.N,*%
X171958000Y-86132000D03*
D16*
X179458000Y-88432000D03*
X179458000Y-93432000D03*
D15*
X171958000Y-95732000D03*
%TD*%
D17*
%TO.N,GND*%
%TO.C,PT6*%
X145618200Y-93980000D03*
D18*
%TO.N,Net-(PT6-Pad2)*%
X147066000Y-91440000D03*
D17*
%TO.N,/CV2_IN*%
X148488400Y-88900000D03*
D19*
%TO.N,*%
X147066000Y-88900000D03*
X147066000Y-93980000D03*
%TD*%
D20*
%TO.N,+12V*%
X143002000Y-77502500D03*
X124968000Y-76454000D03*
X124968000Y-84074000D03*
X124968000Y-81534000D03*
X119094000Y-86106000D03*
X179324000Y-85598000D03*
X129032000Y-76454000D03*
X170434000Y-79021489D03*
%TO.N,GND*%
X192024000Y-87630000D03*
X175006000Y-83820000D03*
X171223069Y-78232000D03*
X160782000Y-83058000D03*
X133858000Y-67310000D03*
X161036000Y-74168000D03*
X145034000Y-74930000D03*
X158496000Y-62992000D03*
X115570000Y-67564000D03*
X119380000Y-67564000D03*
X135966200Y-60325000D03*
X170688000Y-64008000D03*
X115824000Y-80518000D03*
X137751897Y-95293103D03*
X139954000Y-85344000D03*
X145045000Y-88900000D03*
X145923000Y-65151000D03*
X168910000Y-83820000D03*
X119634000Y-80772000D03*
%TO.N,-12V*%
X118872000Y-61214000D03*
X124968000Y-65786000D03*
X143256000Y-85166200D03*
X173228000Y-65532000D03*
X177673000Y-78613000D03*
X124968000Y-71882000D03*
X144526000Y-65024000D03*
X129032000Y-71882000D03*
%TO.N,/AUDIO_OUT*%
X176022000Y-64008000D03*
X185547000Y-88773000D03*
%TO.N,/CV1_IN*%
X185356500Y-53657500D03*
X135890000Y-86741000D03*
%TO.N,Net-(C9-Pad1)*%
X127635000Y-62484000D03*
%TO.N,Net-(C9-Pad2)*%
X129032000Y-68199000D03*
X140970000Y-79248000D03*
%TO.N,Net-(D14-A)*%
X161544000Y-54864000D03*
X163068000Y-62738000D03*
X161290000Y-93980000D03*
X164338000Y-69596000D03*
X163193000Y-69848002D03*
%TO.N,Net-(D10-K)*%
X156210000Y-75438000D03*
X169230229Y-78952466D03*
%TO.N,Net-(D3-K)*%
X192024000Y-92202000D03*
X187579000Y-94361000D03*
%TO.N,/AUDIO_IN*%
X137414000Y-50546000D03*
%TO.N,Net-(D7-K)*%
X143256000Y-81026000D03*
X141224000Y-81534000D03*
X140970000Y-60325000D03*
X145669000Y-80264000D03*
X147320000Y-85852000D03*
%TO.N,Net-(D7-A)*%
X148774914Y-66465959D03*
X147828000Y-79629000D03*
%TO.N,Net-(D8-A)*%
X136144001Y-83388199D03*
X159766000Y-49784000D03*
X149543897Y-80126000D03*
%TO.N,Net-(D13-K)*%
X135890000Y-68199000D03*
X160274000Y-98298000D03*
%TO.N,Net-(D14-K)*%
X162814000Y-75184000D03*
X179324000Y-63754000D03*
X168656000Y-64516000D03*
X168402000Y-68580000D03*
%TO.N,Net-(J1-+12v)*%
X123444000Y-80137000D03*
%TO.N,Net-(J1--12v)*%
X123571000Y-67056000D03*
%TO.N,Net-(PT1-Pad2)*%
X129032000Y-83312000D03*
%TO.N,Net-(PT2-Pad2)*%
X161671000Y-90297000D03*
%TO.N,Net-(PT2-Pad3)*%
X178054000Y-94996000D03*
X178054000Y-83566000D03*
%TO.N,Net-(U2A--)*%
X169164000Y-74676000D03*
X179451000Y-51181000D03*
%TO.N,Net-(U2D-+)*%
X169418001Y-67564001D03*
%TO.N,Net-(PT4-Pad3)*%
X179578000Y-61468000D03*
%TO.N,Net-(PT6-Pad2)*%
X132588000Y-83439000D03*
%TO.N,Net-(PT7-Pad3)*%
X182753000Y-71120000D03*
X181737000Y-66294000D03*
%TO.N,Net-(U1B--)*%
X146304000Y-75438000D03*
X136144000Y-78994000D03*
%TO.N,Net-(U1C--)*%
X132842000Y-77978000D03*
X161152000Y-85217000D03*
X147226959Y-65565959D03*
X152781000Y-65151000D03*
%TO.N,Net-(U1D--)*%
X137668000Y-64802000D03*
X133986397Y-71499603D03*
%TO.N,Net-(U2B--)*%
X164338000Y-83566000D03*
X171424834Y-79368984D03*
%TO.N,Net-(U2C-+)*%
X175768000Y-78994000D03*
X171450000Y-83693000D03*
%TD*%
D21*
%TO.N,+12V*%
X165637707Y-77502500D02*
X143002000Y-77502500D01*
X168283208Y-80148000D02*
X165637707Y-77502500D01*
X169307489Y-80148000D02*
X168283208Y-80148000D01*
X170434000Y-79021489D02*
X169307489Y-80148000D01*
%TO.N,Net-(D10-K)*%
X169122466Y-78952466D02*
X169230229Y-78952466D01*
X167894000Y-77089000D02*
X167894000Y-77724000D01*
X166243000Y-75438000D02*
X167894000Y-77089000D01*
X165102793Y-75438000D02*
X166243000Y-75438000D01*
X164456793Y-76084000D02*
X165102793Y-75438000D01*
X161938793Y-76084000D02*
X164456793Y-76084000D01*
X160155207Y-75046000D02*
X160900793Y-75046000D01*
X159763207Y-75438000D02*
X160155207Y-75046000D01*
X156210000Y-75438000D02*
X159763207Y-75438000D01*
X160900793Y-75046000D02*
X161938793Y-76084000D01*
X167894000Y-77724000D02*
X169122466Y-78952466D01*
%TO.N,-12V*%
X145288000Y-64262000D02*
X166389207Y-64262000D01*
X144526000Y-65024000D02*
X145288000Y-64262000D01*
X168167207Y-66040000D02*
X172720000Y-66040000D01*
X166389207Y-64262000D02*
X168167207Y-66040000D01*
X172720000Y-66040000D02*
X173228000Y-65532000D01*
%TO.N,+12V*%
X170434000Y-81661000D02*
X170434000Y-79021489D01*
X171566000Y-82793000D02*
X170434000Y-81661000D01*
X171822793Y-82793000D02*
X171566000Y-82793000D01*
X172350000Y-83320207D02*
X171822793Y-82793000D01*
X176784000Y-88011000D02*
X172350000Y-83577000D01*
X172350000Y-83577000D02*
X172350000Y-83320207D01*
%TO.N,Net-(D14-K)*%
X163830000Y-75184000D02*
X167894000Y-71120000D01*
X162814000Y-75184000D02*
X163830000Y-75184000D01*
X167894000Y-69088000D02*
X168402000Y-68580000D01*
X167894000Y-71120000D02*
X167894000Y-69088000D01*
%TO.N,+12V*%
X137919207Y-80772000D02*
X141188707Y-77502500D01*
X128905000Y-76581000D02*
X129032000Y-76454000D01*
X124968000Y-84074000D02*
X120650000Y-84074000D01*
X119094000Y-85630000D02*
X119094000Y-86106000D01*
X141188707Y-77502500D02*
X143002000Y-77502500D01*
X179197000Y-85598000D02*
X179324000Y-85598000D01*
X176784000Y-88011000D02*
X179197000Y-85598000D01*
X129032000Y-76454000D02*
X129032000Y-77851000D01*
X129032000Y-77851000D02*
X131953000Y-80772000D01*
X124968000Y-81534000D02*
X124968000Y-76454000D01*
X131953000Y-80772000D02*
X137919207Y-80772000D01*
X125095000Y-76581000D02*
X128905000Y-76581000D01*
X120650000Y-84074000D02*
X119094000Y-85630000D01*
X177857800Y-93472000D02*
X176784000Y-92398200D01*
X176784000Y-92398200D02*
X176784000Y-88011000D01*
X124968000Y-76454000D02*
X125095000Y-76581000D01*
%TO.N,-12V*%
X124968000Y-71882000D02*
X129032000Y-71882000D01*
X120396000Y-61214000D02*
X118872000Y-61214000D01*
X124968000Y-65786000D02*
X124968000Y-71882000D01*
X124968000Y-65786000D02*
X120396000Y-61214000D01*
X143002000Y-63500000D02*
X144526000Y-65024000D01*
X124968000Y-65786000D02*
X127254000Y-63500000D01*
X127254000Y-63500000D02*
X143002000Y-63500000D01*
%TO.N,/CV1_IN*%
X185356500Y-55816500D02*
X192024000Y-62484000D01*
X185356500Y-53657500D02*
X185356500Y-55816500D01*
%TO.N,Net-(C9-Pad1)*%
X131665163Y-56209000D02*
X137294000Y-56209000D01*
X127635000Y-60239163D02*
X131665163Y-56209000D01*
X127635000Y-62484000D02*
X127635000Y-60239163D01*
%TO.N,/CV2_IN*%
X189484000Y-70104000D02*
X192024000Y-67564000D01*
X152148793Y-88900000D02*
X161673793Y-98425000D01*
X148488400Y-88900000D02*
X152148793Y-88900000D01*
X161673793Y-98425000D02*
X186309000Y-98425000D01*
X186309000Y-98425000D02*
X189484000Y-95250000D01*
X189484000Y-95250000D02*
X189484000Y-70104000D01*
%TO.N,/AUDIO_IN*%
X192934738Y-53001057D02*
X192955057Y-53001057D01*
X195615000Y-71411001D02*
X195615000Y-74930000D01*
X193513000Y-76235000D02*
X194999338Y-76235000D01*
X189230000Y-49276000D02*
X191704001Y-51750001D01*
X164084000Y-49276000D02*
X189230000Y-49276000D01*
X191704001Y-51770320D02*
X192934738Y-53001057D01*
X158750000Y-48006000D02*
X162814000Y-48006000D01*
X157480000Y-49276000D02*
X158750000Y-48006000D01*
X138684000Y-49276000D02*
X157480000Y-49276000D01*
X192955057Y-53001057D02*
X194564000Y-54610000D01*
X195906001Y-71120000D02*
X195615000Y-71411001D01*
X195615000Y-75619338D02*
X195615000Y-74930000D01*
X194999338Y-76235000D02*
X195615000Y-75619338D01*
X193075000Y-81753000D02*
X194561338Y-81753000D01*
X137414000Y-50546000D02*
X138684000Y-49276000D01*
X194561338Y-81753000D02*
X195615000Y-80699338D01*
X192024000Y-82804000D02*
X193075000Y-81753000D01*
X194564000Y-55807999D02*
X195906001Y-57150000D01*
X162814000Y-48006000D02*
X164084000Y-49276000D01*
X191704001Y-51750001D02*
X191704001Y-51770320D01*
X192024000Y-77724000D02*
X193513000Y-76235000D01*
X195615000Y-80699338D02*
X195615000Y-74930000D01*
X195906001Y-57150000D02*
X195906001Y-71120000D01*
X194564000Y-54610000D02*
X194564000Y-55807999D01*
%TO.N,Net-(D7-K)*%
X141859000Y-80899000D02*
X141224000Y-81534000D01*
X143256000Y-81026000D02*
X144907000Y-81026000D01*
X143129000Y-80899000D02*
X141859000Y-80899000D01*
X143256000Y-81026000D02*
X143129000Y-80899000D01*
X144907000Y-81026000D02*
X145669000Y-80264000D01*
%TO.N,Net-(D8-A)*%
X146230897Y-83439000D02*
X136194802Y-83439000D01*
X136194802Y-83439000D02*
X136144001Y-83388199D01*
X149543897Y-80126000D02*
X146230897Y-83439000D01*
%TO.N,Net-(D14-K)*%
X175511207Y-63246000D02*
X171198793Y-63246000D01*
X176532793Y-63246000D02*
X176394793Y-63108000D01*
X178816000Y-63246000D02*
X176532793Y-63246000D01*
X179324000Y-63754000D02*
X178816000Y-63246000D01*
X175649207Y-63108000D02*
X175511207Y-63246000D01*
X171198793Y-63246000D02*
X171060793Y-63108000D01*
X171060793Y-63108000D02*
X170064000Y-63108000D01*
X170064000Y-63108000D02*
X168656000Y-64516000D01*
X176394793Y-63108000D02*
X175649207Y-63108000D01*
%TO.N,Net-(J1-+12v)*%
X120523000Y-80137000D02*
X123444000Y-80137000D01*
X118110000Y-77724000D02*
X120523000Y-80137000D01*
%TO.N,Net-(J1--12v)*%
X118110000Y-70104000D02*
X120523000Y-70104000D01*
X120523000Y-70104000D02*
X123571000Y-67056000D01*
%TO.N,Net-(PT1-Pad2)*%
X129928837Y-83312000D02*
X129032000Y-83312000D01*
X133858000Y-88742792D02*
X133858000Y-87241163D01*
X133858000Y-87241163D02*
X129928837Y-83312000D01*
X137294000Y-90906000D02*
X136021208Y-90906000D01*
X136021208Y-90906000D02*
X133858000Y-88742792D01*
%TO.N,Net-(U2A--)*%
X176907800Y-57825001D02*
X176907800Y-52833786D01*
X176907800Y-52833786D02*
X178560586Y-51181000D01*
X178560586Y-51181000D02*
X179451000Y-51181000D01*
X177857800Y-58775000D02*
X176907800Y-57825001D01*
%TO.N,Net-(PT4-Pad3)*%
X178347536Y-52384000D02*
X177883200Y-52848336D01*
X179578000Y-61468000D02*
X180809000Y-60237000D01*
X177883200Y-52848336D02*
X177883200Y-53822000D01*
X185496200Y-67386200D02*
X179578000Y-61468000D01*
X180809000Y-52384000D02*
X178347536Y-52384000D01*
X185496200Y-72364600D02*
X185496200Y-67386200D01*
X180809000Y-60237000D02*
X180809000Y-52384000D01*
%TO.N,Net-(PT6-Pad2)*%
X136807000Y-85217000D02*
X134620000Y-85217000D01*
X143030000Y-91440000D02*
X136807000Y-85217000D01*
X147066000Y-91440000D02*
X143030000Y-91440000D01*
X132842000Y-83439000D02*
X132588000Y-83439000D01*
X134620000Y-85217000D02*
X132842000Y-83439000D01*
%TO.N,Net-(PT7-Pad3)*%
X181737000Y-66294000D02*
X182753000Y-67310000D01*
X182753000Y-67310000D02*
X182753000Y-71120000D01*
X182626000Y-71247000D02*
X182626000Y-77444600D01*
X182753000Y-71120000D02*
X182626000Y-71247000D01*
%TO.N,Net-(U1B--)*%
X145796000Y-75438000D02*
X144907000Y-76327000D01*
X144907000Y-76327000D02*
X138176000Y-76327000D01*
X146304000Y-75438000D02*
X145796000Y-75438000D01*
X136144000Y-78359000D02*
X136144000Y-78994000D01*
X138176000Y-76327000D02*
X136144000Y-78359000D01*
%TO.N,Net-(U1C--)*%
X134814918Y-77978000D02*
X132842000Y-77978000D01*
X147226959Y-65565959D02*
X134814918Y-77978000D01*
%TO.N,Net-(U1D--)*%
X137668000Y-64802000D02*
X137486000Y-64984000D01*
X133760541Y-71273747D02*
X133986397Y-71499603D01*
X137486000Y-64984000D02*
X137415000Y-64984000D01*
X133760541Y-68638459D02*
X133760541Y-71273747D01*
X137415000Y-64984000D02*
X133760541Y-68638459D01*
%TD*%
M02*
